<svg xmlns="http://www.w3.org/2000/svg" version="1.1" xmlns:xlink="http://www.w3.org/1999/xlink" xmlns:svgjs="http://svgjs.dev/svgjs" width="1000" height="1000" viewBox="0 0 1000 1000"><rect width="1000" height="1000" fill="#000000"></rect><g transform="matrix(0.7,0,0,0.7,149.5757575871138,282.1265587044535)"><svg viewBox="0 0 396 247" data-background-color="#d2d6dc" preserveAspectRatio="xMidYMid meet" height="623" width="1000" xmlns="http://www.w3.org/2000/svg" xmlns:xlink="http://www.w3.org/1999/xlink"><g id="tight-bounds" transform="matrix(1,0,0,1,0.2400000064243386,-0.09999999999999432)"><svg viewBox="0 0 395.52 247.2" height="247.2" width="395.52"><g><svg viewBox="0 0 395.52 247.2" height="247.2" width="395.52"><g transform="matrix(1,0,0,1,0,89.16712806539509)"><svg viewBox="0 0 395.52 68.86574386920981" height="68.86574386920981" width="395.52"><g><svg viewBox="0 0 395.52 68.86574386920981" height="68.86574386920981" width="395.52"><g><svg viewBox="0 0 395.52 68.86574386920981" height="68.86574386920981" width="395.52"><g><svg viewBox="0 0 395.52 68.86574386920981" height="68.86574386920981" width="395.52"><g><svg viewBox="0 0 395.52 68.86574386920981" height="68.86574386920981" width="395.52"><g><svg viewBox="0 0 395.52 68.86574386920981" height="68.86574386920981" width="395.52"><g transform="matrix(1,0,0,1,0,0)"><svg width="395.52" viewBox="0.4000000059604645 -31.149999618530273 183.48001098632812 31.94999885559082" height="68.86574386920981" data-palette-color="#636365"><path d="M7.8 0L4.4 0 4.4-20.3 0.4-20.3 0.4-23.4 4.4-23.4 4.4-31.15 7.8-31.15 7.8-23.4 13.2-23.4 13.2-20.3 7.8-20.3 7.8 0ZM28.4-24.2Q29.6-24.2 30.7-23.85L30.7-23.85 30.7-20.75Q29.65-21.25 28.4-21.25L28.4-21.25Q26.25-21.25 24.4-20.05 22.55-18.85 21.42-16.57 20.3-14.3 20.3-11.2L20.3-11.2 20.3 0 16.9 0 16.9-23.4 20.3-23.4 20.3-18.7Q21.65-21.3 23.72-22.75 25.8-24.2 28.4-24.2L28.4-24.2ZM50.99-23.4L54.39-23.4 54.39 0 50.99 0 50.99-3.9Q49.8-1.65 47.82-0.43 45.84 0.8 43.24 0.8L43.24 0.8Q40.8 0.8 38.72-0.2 36.64-1.2 35.42-3.15 34.19-5.1 34.19-7.75L34.19-7.75 34.19-23.4 37.59-23.4 37.59-9.25Q37.59-2.3 43.8-2.3L43.8-2.3Q47.39-2.3 49.19-4.85 50.99-7.4 50.99-11.7L50.99-11.7 50.99-23.4ZM70.84 0.8Q67.44 0.8 64.79-0.8 62.14-2.4 60.64-5.25 59.14-8.1 59.14-11.7L59.14-11.7Q59.14-15.3 60.62-18.15 62.09-21 64.74-22.6 67.39-24.2 70.74-24.2L70.74-24.2Q73.59-24.2 75.72-22.98 77.84-21.75 79.59-19.5L79.59-19.5 77.09-17.55Q74.64-21.1 70.74-21.1L70.74-21.1Q68.39-21.1 66.52-19.9 64.64-18.7 63.59-16.55 62.54-14.4 62.54-11.7L62.54-11.7Q62.54-9 63.59-6.85 64.64-4.7 66.52-3.5 68.39-2.3 70.74-2.3L70.74-2.3Q73.14-2.3 74.69-3.13 76.24-3.95 77.49-5.55L77.49-5.55 80.14-3.7Q78.49-1.65 76.07-0.43 73.64 0.8 70.84 0.8L70.84 0.8ZM102.89-23.4L106.29-23.4 106.29 0 102.89 0 102.89-3.45Q101.44-1.45 99.34-0.33 97.24 0.8 94.74 0.8L94.74 0.8Q91.39 0.8 88.74-0.8 86.09-2.4 84.59-5.25 83.09-8.1 83.09-11.75L83.09-11.75Q83.09-15.35 84.57-18.18 86.04-21 88.67-22.6 91.29-24.2 94.64-24.2L94.64-24.2Q97.19-24.2 99.32-23.08 101.44-21.95 102.89-19.9L102.89-19.9 102.89-23.4ZM94.64-2.3Q97.04-2.3 98.92-3.5 100.79-4.7 101.84-6.85 102.89-9 102.89-11.7L102.89-11.7Q102.89-14.4 101.84-16.55 100.79-18.7 98.92-19.9 97.04-21.1 94.64-21.1L94.64-21.1Q92.29-21.1 90.44-19.9 88.59-18.7 87.54-16.57 86.49-14.45 86.49-11.75L86.49-11.75Q86.49-9 87.54-6.85 88.59-4.7 90.44-3.5 92.29-2.3 94.64-2.3L94.64-2.3ZM129.74-23.4L133.14-23.4 133.14 0 129.74 0 129.74-3.9Q128.54-1.65 126.56-0.43 124.59 0.8 121.99 0.8L121.99 0.8Q119.54 0.8 117.46-0.2 115.39-1.2 114.16-3.15 112.94-5.1 112.94-7.75L112.94-7.75 112.94-23.4 116.34-23.4 116.34-9.25Q116.34-2.3 122.54-2.3L122.54-2.3Q126.14-2.3 127.94-4.85 129.74-7.4 129.74-11.7L129.74-11.7 129.74-23.4ZM147.69 0.8Q144.29 0.8 141.71-0.65 139.14-2.1 137.79-4.75L137.79-4.75 140.84-6.25Q142.69-2.3 148.09-2.3L148.09-2.3Q150.69-2.3 152.39-3.25 154.09-4.2 154.09-6.2L154.09-6.2Q154.09-8.25 152.71-9.25 151.34-10.25 147.89-10.55L147.89-10.55Q143.09-10.95 141.01-12.7 138.94-14.45 138.94-17.35L138.94-17.35Q138.94-20.6 141.29-22.4 143.64-24.2 147.74-24.2L147.74-24.2Q154.69-24.2 157.19-18.7L157.19-18.7 154.14-17.2Q153.29-19.2 151.66-20.15 150.04-21.1 147.49-21.1L147.49-21.1Q144.89-21.1 143.51-20.15 142.14-19.2 142.14-17.45L142.14-17.45Q142.14-15.8 143.61-14.78 145.09-13.75 148.69-13.45L148.69-13.45Q153.14-13.05 155.31-11.28 157.49-9.5 157.49-6.6L157.49-6.6Q157.49-4.25 156.14-2.58 154.79-0.9 152.54-0.05 150.29 0.8 147.69 0.8L147.69 0.8ZM172.73-24.2Q175.88-24.2 178.43-22.65 180.98-21.1 182.43-18.43 183.88-15.75 183.88-12.45L183.88-12.45Q183.88-11.5 183.83-11L183.83-11 164.58-11Q164.78-7.4 166.93-4.85 169.08-2.3 172.78-2.3L172.78-2.3Q175.78-2.3 177.76-3.43 179.73-4.55 180.93-6.55L180.93-6.55 183.63-4.75Q181.98-2.15 179.28-0.68 176.58 0.8 172.88 0.8L172.88 0.8Q169.48 0.8 166.83-0.8 164.18-2.4 162.68-5.25 161.18-8.1 161.18-11.7L161.18-11.7Q161.18-15.3 162.66-18.15 164.13-21 166.76-22.6 169.38-24.2 172.73-24.2L172.73-24.2ZM164.78-13.8L180.48-13.8Q179.98-17.45 178.03-19.28 176.08-21.1 172.73-21.1L172.73-21.1Q169.48-21.1 167.41-19.03 165.33-16.95 164.78-13.8L164.78-13.8Z" opacity="1" transform="matrix(1,0,0,1,0,0)" fill="#ffffff" class="undefined-text-0" data-fill-palette-color="primary" id="text-0"></path></svg></g></svg></g></svg></g></svg></g><g></g></svg></g></svg></g></svg></g></svg></g><defs></defs></svg><rect width="395.52" height="247.2" fill="none" stroke="none" visibility="hidden"></rect></g></svg></g></svg>